# xmcd
# 
# Track frame offsets:
#     150
#     14700
#     28139
#     42120
#     55637
#     70257
#     85225
#     99236
#     112684
#     126317
#     143906
# 
# Disc length: 2114
# 
# Revision: 1
# Processed by: cddbd v1.5.2PL0 Copyright (c) Steve Scherf et al.
# Submitted via: fre:ac v1.0.31
# 
DISCID=8d08400b
DTITLE=Various Artist - Un LuJo
DYEAR=2012
DGENRE=Ranchero
TTITLE0=Lucero and Joan Sebastian - Caminar Contigo
TTITLE1=Lucero - La Doma
TTITLE2=Joan Sebastian - Diséñame
TTITLE3=Lucero - Alma Enamorada
TTITLE4=Joan Sebastian - Un Beso Al Mundo
TTITLE5=Lucero and Joan Sebastian - Escándalo Social
TTITLE6=Lucero - Adicta
TTITLE7=Joan Sebastian - Un Vestido De Besos
TTITLE8=Lucero - Jardinera
TTITLE9=Joan Sebastian - Diganle
TTITLE10=Lucero and Joan Sebastian - Desliz
EXTD=
EXTT0=
EXTT1=
EXTT2=
EXTT3=
EXTT4=
EXTT5=
EXTT6=
EXTT7=
EXTT8=
EXTT9=
EXTT10=
PLAYORDER=
